<?xml version="1.0" encoding="UTF-8"?>
<svg id="Layer_2" data-name="Layer 2" xmlns="http://www.w3.org/2000/svg" viewBox="0 0 544.25 582.85">
  <defs>
    <style>
      .cls-1 {
        fill: #CFB76F;
        stroke-width: 0px;
      }
    </style>
  </defs>
  <g id="Layer_1-2" data-name="Layer 1">
    <g>
      <path class="cls-1" d="M14.36,362.88c-2.2-6.22-4.78-12.33-6.5-18.68-2.2-8.12-4.06-16.37-5.42-24.68-1.19-7.3-1.71-14.73-2.13-22.12-.33-5.9-.52-11.87.05-17.73.92-9.42,2.35-18.8,3.88-28.14,1.86-11.31,6.25-21.83,11.04-32.13,4.43-9.54,10.24-18.27,16.59-26.65,1.05-1.38,1.93-2.9,2.8-4.41.85-1.48.51-2.2-1.23-2.26-2.8-.09-5.66-.3-8.41.1-6.53.95-13.02,2.26-19.53,3.36-.74.13-1.54-.11-2.32-.18.08-.77-.09-1.69.28-2.27,2.02-3.14,4.05-6.28,6.3-9.24,5.79-7.63,12.43-14.53,19.5-20.93,6.88-6.23,14.11-12.09,21.44-17.79,11.01-8.56,22.81-15.99,35.38-22.04,16.43-7.91,33.58-13.81,51.42-17.7,6.98-1.52,14.03-2.22,21.16-2.24,1.43,0,2.03.53,2.01,1.98-.05,3.43-.09,6.87,0,10.3.18,7.35.06,14.73,1.48,21.99.25,1.27.62,2.55,1.16,3.73.32.7,1,1.51,1.68,1.69.39.1,1.33-.83,1.61-1.48,1.83-4.17,3.52-8.4,5.31-12.59,3.55-8.32,6.86-16.76,10.75-24.92,7.63-15.99,16.93-31.01,27.89-44.94,3.85-4.9,7.83-9.73,12.2-14.16,7.79-7.92,16.04-15.41,25.35-21.52,7.19-4.72,14.75-8.91,22.89-11.87,4.8-1.75,9.63-3.41,14.47-5.06.61-.21,1.3-.17,2.4-.29-.98,2.56-1.72,4.79-2.67,6.93-3.44,7.76-7.13,15.41-10.4,23.24-3.61,8.66-6.56,17.62-7.53,26.97-.65,6.21-.12,12.54-.12,19.23.91-.5,1.55-.79,2.13-1.18,7.24-4.78,14.43-9.64,21.71-14.35,7.38-4.78,15.46-8.13,23.78-10.85,5.33-1.74,10.75-3.21,16.14-4.76.69-.2,1.45-.16,2.6-.27-.37.9-.5,1.55-.86,2.04-2.94,4.03-5.79,8.14-8.91,12.02-7.46,9.29-13.41,19.43-17.06,30.78-1.49,4.65-2.67,9.49-2.5,14.51.1,2.98-.17,5.97,0,8.94.23,3.84,2.13,7.11,4.76,9.73,4.68,4.65,9.63,9.02,14.48,13.5,3.21,2.96,6.49,5.84,9.64,8.86,8.63,8.31,17.24,16.64,25.79,25.04,6.87,6.74,12.33,14.54,16.73,23.08,6.58,12.76,13.06,25.58,19.76,38.28,2.65,5.02,5.34,10.11,8.76,14.59,3.14,4.12,7.09,7.69,11.01,11.13,8.41,7.37,18.33,12.51,27.91,18.11,13.69,8,27.53,15.73,41.14,23.85,15.06,8.99,29.95,18.26,44.88,27.46,2.71,1.67,5.37,3.45,7.88,5.4,4.28,3.33,6.57,7.75,7.19,13.22.64,5.66-1.27,10.41-4.9,14.39-2.93,3.2-6.26,6.13-9.75,8.7-15.52,11.45-31.02,22.91-46.82,33.96-5.74,4.01-12.16,7.12-18.49,10.18-5.34,2.58-11.28,3.14-17.16,3.34-14.28.48-28.41-1.23-42.44-3.54-17.79-2.93-35.61-5.85-53.23-9.67-20.13-4.36-40.09-9.51-60.03-14.67-18.86-4.88-37.53-10.46-56.4-15.28-11.18-2.86-22.51-5.23-33.89-7.13-8.95-1.5-17.98-2.62-27.15-2.67-6.21-.03-12.32.08-18.4,1.28-6.41,1.27-12.33,3.68-17.1,8.3-3.58,3.46-4.73,8-5,12.77-.52,9.21.78,18.27,2.41,27.31,1.46,8.04,2.96,16.08,4.09,24.17.5,3.58.82,7.3-.95,10.83-1.31,2.6-3.41,3.97-6.01,4.62-6.29,1.57-12.64,1.22-18.88-.22-12.7-2.93-24.85-7.46-36.6-13.07-4.67-2.23-9.35-4.46-13.95-6.82-4.34-2.22-7.06-5.88-8.6-10.43-4.98-14.68-9.06-29.61-11.69-44.9-.34-1.96-.44-3.97-.52-5.95-.37-8.53-.6-17.07.32-25.59.52-4.76,1.29-9.5,1.76-14.26.11-1.11-.21-2.61-.93-3.33-.5-.51-2.17-.3-3.06.13-1.84.87-3.64,1.95-5.23,3.22-8.65,6.94-15.4,15.25-18.46,26.16-.52,1.84-1.21,3.64-1.83,5.45-.29.03-.57.06-.86.08ZM341.73,246.66c1.12,0,2.26.09,3.36-.03.63-.07,1.22-.49,1.82-.76-.29-.57-.44-1.27-.88-1.68-4.05-3.87-8.09-7.76-12.25-11.52-7.02-6.35-14.07-12.66-21.21-18.87-1.76-1.53-3.81-2.82-5.91-3.86-1.96-.97-2.87-.31-2.79,1.87.1,2.92.33,5.84.73,8.74.67,4.94,1.47,9.85,2.3,14.77.59,3.49,2.79,5.63,6.12,6.61,1.85.55,3.73,1.02,5.62,1.42,7.62,1.6,15.25,3.21,23.08,3.31Z"/>
      <path class="cls-1" d="M91.8,484.59c1.21.34,2.46.58,3.62,1.04,7.66,3.03,15.25,6.25,22.97,9.14,9.26,3.47,18.81,6.08,28.65,7.02,9.94.95,19.96,1.05,29.76-1.45,7.44-1.89,14.05-5.31,17.29-12.72,1.44-3.29,2.16-7.06,2.45-10.67.75-9.37-1.58-18.46-2.99-27.64-.97-6.33-1.74-12.72-2.07-19.11-.2-3.96.62-7.94,2.87-11.45,2.03-3.17,5.01-5.01,8.49-6.05,6.76-2.03,13.71-1.83,20.61-1.14,8.55.85,17.11,1.8,25.61,3.07,10.55,1.58,21.04,3.51,31.55,5.34,2.37.41,2.73,1.29,1.29,3.32-2.64,3.71-5.33,7.39-8.16,10.95-8.18,10.26-13.73,21.69-15.57,34.76-.52,3.7-.91,7.42-1.11,11.15-.37,6.72-.74,13.45-.76,20.18-.04,11.63,1.14,23.19,3.58,34.54,3.2,14.88,6.89,29.66,10.4,44.48.85,3.61.61,3.97-2.98,3.17-15.18-3.39-30.21-7.37-44.82-12.72-11.19-4.09-22.42-8.16-33.31-12.95-9.58-4.22-18.91-9.08-27.99-14.29-9.35-5.37-18.49-11.17-27.3-17.38-7.78-5.48-15.29-11.42-22.03-18.23-5.22-5.28-10.67-10.34-15.88-15.62-1.76-1.78-3.12-3.94-4.67-5.92.17-.26.35-.53.52-.79Z"/>
    </g>
  </g>
</svg>